<?xml version="1.0" encoding="utf-8"?>
<!-- Generator: Adobe Illustrator 25.3.0, SVG Export Plug-In . SVG Version: 6.00 Build 0)  -->
<svg version="1.1" id="Layer_1" xmlns="http://www.w3.org/2000/svg" xmlns:xlink="http://www.w3.org/1999/xlink" x="0px" y="0px"
	 viewBox="0 0 4000 4000" style="enable-background:new 0 0 4000 4000;" xml:space="preserve">
<style type="text/css">
	.st0{fill:#FFFFFF;}
	.st1{fill:#FF2261;}
	.st2{fill:#00A4FF;}
	.st3{opacity:0.3;}
	.st4{fill:#000072;}
	.st5{fill:#FFA300;}
	.st6{fill:#FFC2DE;}
	.st7{opacity:0.7;}
</style>
<g>
	<g>
		<rect class="st0" width="4000" height="4000"/>
	</g>
	<g>
		<g>
			<circle class="st1" cx="2000.2" cy="1981.43" r="1306.8"/>
		</g>
		<g>
			<g>
				<g>
					<path class="st2" d="M3338.22,3053.57c0,0-170.3,370.91-1016.19,96.28c0,0-290.92-985.09,255.27-1133.71
						c0,0,151.53-20.84,284.7,234.09c128.72,246.38,63.1,166.99,199.08,443.34c4.69,9.53,9.63,19.5,14.81,29.92
						c0,0,16.89,41.03,47.4,95.1c14.86,26.27,32.93,55.6,53.87,84.78c40.64,56.73,92.08,113.02,151.68,145.31
						C3331.95,3050.41,3335.06,3052.04,3338.22,3053.57z"/>
				</g>
				<g class="st3">
					<path class="st4" d="M3338.22,3053.57c0,0-170.3,370.91-1016.19,96.28c0,0-290.92-985.09,255.27-1133.71
						c0,0,151.53-20.84,284.7,234.09c128.72,246.38,63.1,166.99,199.08,443.34c-9.53,8.15-14.86,12.59-14.86,12.59
						s-132.23-131.83-213.15-297.93c-76.44-156.93-261.95-221.36-362.51,41.26c-15.97,41.72-13.44,88.9,9.3,127.34
						c7.22,12.2,16.35,23.91,27.87,33.44c13.42,11.1,26.87,28.56,39.19,47.72c62.13,96.61,157.58,167.71,269.49,193.55
						c93.32,21.55,204.39,24.16,306.87-32.96c28.39-15.8,56.19-36.24,82.7-62.11c249.2-243.03,0,122.01,0,122.01
						s-10.17,10.27-28.84,24.89c-68.23,53.36-249.83,164.37-459.61,38.01c-14.22-8.57-31.59-11.21-47.32-5.91
						c-20.42,6.88-38.68,26.46-15.46,80.03c37.08,85.47,338.62,277.09,674.07,33.18
						C3331.95,3050.41,3335.06,3052.04,3338.22,3053.57z"/>
				</g>
				<g class="st3">
					<g>
						<path class="st4" d="M3031.44,3131.84c-15.31-9.58-29.06-21.54-42.27-33.94c-13.13-12.52-25.62-25.77-37.39-39.64
							c-23.42-27.83-44.7-57.56-63.99-88.5c-19.4-30.9-37-62.95-53.11-95.73c-4.01-8.2-8.06-16.4-11.84-24.71
							c-3.87-8.28-7.71-16.57-11.33-24.96c-3.71-8.35-7.37-16.73-10.84-25.18c-3.51-8.43-7.14-16.84-10.01-25.5
							c-2.96-8.6-5.34-17.57-7.79-26.03l-7.34-25.72c-5.2-17.07-10.18-34.23-15.75-51.23c-10.7-34.14-22.6-67.93-34.43-101.82
							c-11.87-33.87-24.37-67.56-37.36-101.09c-12.74-33.65-26.15-67.04-39.9-100.37c36.18,62.4,69.25,126.63,100.4,191.89
							c15.57,32.64,30.37,65.67,44.51,99.06c7.23,16.62,13.9,33.51,20.79,50.32l9.91,25.41c3.3,8.58,6.68,16.66,9.47,25.1
							c20.11,67.97,43.45,135.37,75.04,199.15c15.61,31.96,33.28,62.96,53.31,92.47c10.03,14.74,20.65,29.12,32.13,42.84
							C3005.2,3107.31,3017.35,3120.61,3031.44,3131.84z"/>
					</g>
				</g>
				<g class="st3">
					<g>
						<path class="st4" d="M2710.07,3138.7c-15.31-9.58-29.06-21.54-42.27-33.94c-13.13-12.52-25.62-25.77-37.39-39.64
							c-23.42-27.83-44.7-57.56-63.99-88.5c-19.4-30.9-37-62.95-53.11-95.73c-4.02-8.2-8.06-16.4-11.84-24.71
							c-3.87-8.28-7.71-16.57-11.33-24.96c-3.71-8.35-7.37-16.73-10.84-25.18c-3.51-8.44-7.14-16.84-10.01-25.5
							c-2.96-8.6-5.34-17.57-7.79-26.03l-7.34-25.72c-5.2-17.07-10.18-34.23-15.75-51.23c-10.7-34.14-22.6-67.93-34.43-101.82
							c-11.87-33.87-24.37-67.56-37.36-101.09c-12.74-33.65-26.15-67.04-39.9-100.37c36.18,62.4,69.25,126.63,100.4,191.89
							c15.57,32.64,30.37,65.67,44.51,99.06c7.23,16.62,13.9,33.51,20.79,50.32l9.91,25.41c3.3,8.58,6.68,16.66,9.48,25.1
							c20.11,67.97,43.45,135.37,75.04,199.15c15.61,31.96,33.28,62.96,53.31,92.47c10.03,14.74,20.65,29.12,32.14,42.84
							C2683.83,3114.17,2695.98,3127.47,2710.07,3138.7z"/>
					</g>
				</g>
				<g>
					<path class="st4" d="M2869.55,3268.92c-157.42,0-342.25-34.24-552.87-102.62c-5.42-1.76-9.62-6.07-11.24-11.54
						c-0.45-1.53-45.39-155.06-66.76-347.38c-28.89-259.81-3.53-463.23,75.38-604.62c58.03-103.98,145.06-172.38,258.7-203.3
						c0.72-0.2,1.45-0.34,2.18-0.44c6.68-0.92,165.14-19.46,302.35,243.2c66.53,127.35,81.59,168.43,99.02,216
						c17.35,47.34,37.02,101.01,115.03,257.56c0.18,0.37,0.36,0.75,0.51,1.13c1.01,2.46,103.02,246.72,254,321.19
						c8.39,4.14,11.97,14.2,8.06,22.71c-1.86,4.04-47.23,99.74-200.25,159.99C3072.15,3252.88,2977.26,3268.92,2869.55,3268.92z
						 M2336.14,3136.26c424.01,136.14,669.76,104.49,801.48,53.68c107.81-41.6,158.33-102.44,176.54-129.62
						c-151.02-86.84-247.24-313.33-254.02-329.68c-78.64-157.84-98.63-212.4-116.27-260.53c-17.02-46.44-31.72-86.54-97.21-211.89
						c-119.76-229.25-253.91-225.84-266.24-225.02c-103.62,28.56-183.07,91.26-236.15,186.37
						C2175.94,2521.11,2315.49,3061.18,2336.14,3136.26z"/>
				</g>
			</g>
			<g>
				<g>
					<path class="st2" d="M2648.08,2105.87c0,0,97.69,19.72,201.38,239.31c103.69,219.59,226.42,378.3,226.42,378.3
						s-129.08-337.37-167.17-480.81C2870.61,2099.22,2728.14,1915.72,2648.08,2105.87z"/>
				</g>
				<g>
					<path class="st4" d="M3075.89,2740.75c-5.2,0-10.31-2.34-13.68-6.71c-1.24-1.6-125.08-162.72-228.37-381.49
						c-97.45-206.37-188.5-229.58-189.41-229.79c-4.97-1.15-9.29-4.46-11.61-9c-2.32-4.54-2.64-9.9-0.66-14.59
						c33.58-79.77,77.34-94,108.04-91.83c77.97,5.42,156.85,124.07,185.22,230.89c37.42,140.91,165.32,475.7,166.61,479.06
						c3.06,8.01-0.21,17.05-7.68,21.25C3081.68,2740.03,3078.77,2740.75,3075.89,2740.75z M2671.43,2096.4
						c35.64,17.24,113.77,72.23,193.65,241.4c49.22,104.23,103.14,195.13,145.79,261.33c-40.82-110.92-95.84-265.33-118.87-352.03
						c-24.84-93.56-96.07-201.24-154.21-205.28C2712.74,2040.02,2690.48,2058.42,2671.43,2096.4z"/>
				</g>
			</g>
			<g>
				<g>
					<path class="st2" d="M1622.67,3133.21c-573.69,232.95-612.21,22.37-614.62,1.63c0-0.25-0.05-0.49-0.05-0.69
						c-0.05-0.64-0.05-0.94-0.05-0.94c149.95-187.73,193.4-357.58,205.5-453.12c6.47-51.05,3.95-80.93,3.95-80.93l135.88-82.16
						l179.97-108.77c0,0,110.45,76.63,204.66,184.32C1879.52,2754.35,1984.5,2986.27,1622.67,3133.21z"/>
				</g>
				<g class="st3">
					<path class="st4" d="M1622.67,3133.21c-573.69,232.95-612.21,22.37-614.62,1.63c0-0.25-0.05-0.49-0.05-0.69
						c-0.05-0.64-0.05-0.94-0.05-0.94s75.12,53.93,180.31,46.9c56.71-3.79,99.31-53.39,94.99-110.07
						c-4.73-62,0.43-151.14,48.1-236.57c25.85-46.31,4.17-104.43-45.87-122c-24.67-8.66-49.92-19.12-72.03-31.38
						c6.47-51.05,3.95-80.93,3.95-80.93l135.88-82.16c106.65-23.65,220.51-32.98,246.53-13.63c18.12,13.48,73.17,47.84,138.1,89.17
						C1879.52,2754.35,1984.5,2986.27,1622.67,3133.21z"/>
				</g>
				<g>
					<path class="st4" d="M1195.67,3259.67c-60.01,0-108.21-11.52-144.42-34.62c-57.23-36.49-60.46-88.79-60.58-91
						c-0.21-4.21,1.13-8.35,3.76-11.65c222.58-278.6,205.97-519.44,205.78-521.85c-0.53-6.52,2.68-12.82,8.28-16.21l315.83-190.94
						c5.83-3.53,13.19-3.3,18.79,0.6c15.05,10.44,368.34,258.63,341.86,497.29c-11.88,107.04-97.94,193.81-255.8,257.91
						C1447.97,3222.78,1302.98,3259.67,1195.67,3259.67z M1026.12,3138.08c2.54,11.51,11.79,37.94,44.81,58.53
						c62.91,39.22,208.55,57.29,545.22-79.42c145.19-58.96,224.07-136.23,234.45-229.67c22.05-198.33-263.3-418.29-318.19-458.61
						l-297.24,179.71C1236.45,2660.02,1228.86,2881.1,1026.12,3138.08z"/>
				</g>
			</g>
			<g>
				<g>
					<path class="st0" d="M3336.25,2493.7c-13.68,191.33-101.47,399.59-323.8,446.65c-105.42,22.32-214.68-5.63-300.45-70.85
						c-47.4-36.04-113.07-70.26-179.43-54.81c0,0-39.94-9.28-35.06-79.84c0,0,15.6-18.91,47.8-30.61
						c37.77-13.68,98.41-17.53,183.53,30.61c128.38,72.58,378.81,102.65,349.73-228.76c-5.04-57.13-18.32-125.07-42.02-205.35
						c-22.37-75.74,21.28-156.72,97.91-175.58c9.04-2.22,18.37-3.6,28-3.8c30.71-0.79,64.29,9.83,99.1,39.75
						C3312.45,2204.85,3347.01,2344.09,3336.25,2493.7z"/>
				</g>
				<g>
					<path class="st5" d="M3336.25,2493.7c-104.63,56.19-193.8,41.87-257.69,12.39c-5.04-57.13-18.32-125.07-42.02-205.35
						c-22.37-75.74,21.28-156.72,97.91-175.58c37.72-9.33,81.32-3.36,127.09,35.95C3312.45,2204.85,3347.01,2344.09,3336.25,2493.7z
						"/>
				</g>
				<g class="st3">
					<path class="st4" d="M3336.25,2493.7c-13.68,191.33-101.47,399.59-323.8,446.65c-105.42,22.32-214.68-5.63-300.45-70.85
						c-47.4-36.04-113.07-70.26-179.43-54.81c0,0-39.94-9.28-35.06-79.84c0,0,15.6-18.91,47.8-30.61
						c4.34,7.11,8.71,14.88,12.58,22.91c9.44,19.56,28.47,32.6,49.99,35.47c24.44,3.26,59.01,14.65,98.19,47.63
						c68.1,57.27,312.84,146.63,463.58-56.99c32.7-44.17,54.53-95.39,65.83-149.17c24.68-117.38,62.62-383.54-73.04-482.72
						c30.71-0.79,64.29,9.83,99.1,39.75C3312.45,2204.85,3347.01,2344.09,3336.25,2493.7z"/>
				</g>
				<g>
					<path class="st4" d="M2939.83,2965.2c-83.95,0-167.8-28.35-238.31-81.94c-41.43-31.49-103.67-66.04-165.05-51.76l-3.91,0.91
						l-3.91-0.9c-2.22-0.51-54.22-13.53-48.38-97.87l0.39-5.54l3.54-4.28c3.38-4.1,84.82-99.22,253.13-4.04
						c78.53,44.41,194.27,67.39,262.84,12.88c77.27-61.42,84.1-209.08,19.76-427.04c-12.29-41.65-6.98-87.08,14.59-124.66
						c21.12-36.8,55.15-62.58,95.8-72.6c49.68-12.25,97.61,1.1,142.49,39.65c70.34,60.41,111.03,276.4,60.21,475.03
						c-46.6,182.11-159.18,300.81-317.02,334.22C2990.86,2962.59,2965.33,2965.2,2939.83,2965.2z M2565.75,2793.64
						c49.26,0,102.7,21.06,156.69,62.1c83.92,63.79,188.32,88.46,286.41,67.71c184.93-39.15,260.16-189.63,290.69-308.97
						c46.24-180.73,10.87-388.62-49.24-440.24c-35.92-30.85-73.51-41.72-111.69-32.31c-31.4,7.74-57.71,27.71-74.1,56.25
						c-16.89,29.43-21.05,65.03-11.42,97.67c69.64,235.9,59.07,391.97-31.4,463.88c-81.54,64.8-210.12,41.76-301.36-9.85
						c-124.91-70.65-190.16-22.48-205.87-7.72c-1.18,38.47,13.33,50.93,19.66,54.52
						C2544.44,2794.64,2554.99,2793.64,2565.75,2793.64z"/>
				</g>
			</g>
			<g>
				<g>
					<path class="st0" d="M1391.94,1012.64l-313.19,587.72l-10.86,20.34C774.8,1371.5,855.97,993.23,896.61,860.36
						c6.62-21.77,24.98-36.93,46.31-40.59c6.86-1.14,14.02-1.14,21.18,0.25c11.31,2.17,22.56,4.54,33.67,7.16
						c194.84,45.72,355.95,157.61,388.24,181.06C1389.92,1011.1,1391.94,1012.64,1391.94,1012.64z"/>
				</g>
				<g>
					<path class="st5" d="M1386.02,1008.24c-41.23,36.74-95.54,59.05-155.09,59.05c-128.87,0-233.3-104.43-233.3-233.3
						c0-2.27,0.05-4.54,0.15-6.81C1192.61,872.9,1353.73,984.79,1386.02,1008.24z"/>
				</g>
				<g class="st3">
					<path class="st4" d="M1391.94,1012.64l-313.19,587.72c-102.55-276.26,53.97-415,44.54-576.75
						c-5.68-98.26-100.23-164.77-180.37-203.82c6.86-1.14,14.02-1.14,21.18,0.25c11.31,2.17,22.56,4.54,33.67,7.16
						c194.84,45.72,355.95,157.61,388.24,181.06C1389.92,1011.1,1391.94,1012.64,1391.94,1012.64z"/>
				</g>
				<g>
					<path class="st4" d="M1067.88,1638c-4.07,0-8.04-1.44-11.2-4.12c-129.72-110.31-202.67-256.86-216.82-435.6
						c-11.57-146.21,20.23-277.65,40.22-342.98c11.35-37.09,48.87-59.56,87.22-52.27c234.87,44.61,427.08,189.72,435.14,195.88
						c6.73,5.14,8.75,14.39,4.77,21.87l-324.09,608.06c-2.46,4.62-6.88,7.87-12.02,8.85C1070.04,1637.9,1068.95,1638,1067.88,1638z
						 M952.88,836.24c-18.04,0-34.35,11.55-39.75,29.18c-43.01,140.59-112.71,488.76,149.76,727.9l306.73-575.51
						c-45.25-31.94-214.29-143.88-408.77-180.82C958.18,836.48,955.51,836.24,952.88,836.24z"/>
				</g>
			</g>
			<g>
				<path class="st0" d="M2369.08,1783.93c0,0-48.64,152.37-237,175.63c0,0-169.26,226.44-484.57,234.88
					c-315.31,8.49-395.69-122.7-395.69-122.7s-104.18,2.47-172.42-75.45c-0.05-0.05-0.05-0.05-0.05-0.05s23.8-35.11,43.65-48.59
					c0,0-55.55-14.27-75.4-36.49c0,0,23.8-76.19,18.27-177.75c-5.23-95.39-67.15-395.89,144.97-596.4
					c13.73-13.04,28.59-25.58,44.68-37.62c0,0-98.5-89.62-44.59-220.51c3.36-8.15,9.04-14.37,15.9-18.42
					c14.02-8.34,32.83-7.6,46.36,4.39c51.6,45.92,149.56,122.75,235.72,130.84c0,0-28.39-23.06-36.78-76.33
					c-5.28-33.82,32-57.97,60.48-39.01c41.43,27.65,99.24,62.02,153.01,79.35c0,0,180.81-263.62,345.78-411.25
					c63.5-56.83,163.28-42.66,208.07,29.87c85.12,137.81,181.8,410.75,61.92,863.87c0,0,14.81,61.32,13.78,141.76
					c0,0,19.55,17.73,90.95,24.89c0,0-7.11,118.99-84.09,143.58C2322.03,1752.43,2327.31,1763.04,2369.08,1783.93z"/>
			</g>
			<g>
				<path class="st5" d="M2301.39,1442.2c119.88-453.12,23.21-726.06-61.92-863.87c-44.78-72.53-144.57-86.7-208.07-29.87
					c-145.58,130.28-303.46,350.85-338.57,400.9l610.36,501.21C2302.1,1445.14,2301.39,1442.2,2301.39,1442.2z"/>
			</g>
			<g>
				<path class="st5" d="M2291.12,1395.44c-66.66,46.76-147.88,74.16-235.47,74.16c-226.93,0-410.9-183.97-410.9-410.9
					c0-37.62,5.04-74.06,14.57-108.68l26.32,9.68C2133.12,984.29,2258.83,1279.11,2291.12,1395.44z"/>
			</g>
			<g class="st3">
				<path class="st4" d="M1377.47,1890.45c3,8.58,11.64,27.49,31.91,37.32c2.16,1.05,4.6-0.84,4.12-3.19l-2.95-14.26
					c-0.36-1.74,0.93-3.39,2.71-3.46l20.45-0.76c1.6-0.06,2.94,1.17,2.98,2.77c0.25,9.7,1.75,41.49,10.86,58.62l0,0
					c6.76,10.96,23.33,8.62,26.8-3.78l10.55-37.82c0.22-0.79,0.77-1.44,1.49-1.81c4.54-2.29,21.4-11.78,29.68-29.98
					c1.97-4.33,6.97-6.37,11.49-4.85c10.61,3.56,30.04,8.74,52.58,8.45c6.69-0.08,13.38,0.86,19.73,2.96l66.05,21.91
					c2.33,0.77,4.56-1.56,3.58-3.81c-2.4-5.48-10.11-12.11-16.88-20.26c-4.54-5.46-2.34-13.8,4.36-16.15
					c15.63-5.49,41.81-21.91,58.56-71.07c0.85-2.48-2.09-4.63-4.3-3.23c-16.18,10.23-61.69,35.85-102.76,29.56
					c-45.18-6.92-79.28-40.07-86.5-47.57c-0.87-0.9-2.2-1.12-3.33-0.57l-47.49,23.43c-0.8,0.39-1.36,1.12-1.54,1.99
					c-1.84,8.97-13.05,59.4-34.36,68.07c-18.42,7.49-44.45,5.08-54.71,3.71C1378.42,1886.41,1376.76,1888.44,1377.47,1890.45z"/>
			</g>
			<g class="st3">
				<path class="st4" d="M2369.08,1783.93c0,0-48.64,152.37-237,175.63c0,0-169.26,226.44-484.57,234.88
					c-315.31,8.49-395.69-122.7-395.69-122.7s-104.18,2.47-172.42-75.45c0.95,0.37,27,11.44,81.54,17.76
					c17.64,2.04,33.41-11.08,34.58-28.8c0.27-4.18,0.67-8.79,1.23-13.83c0.63-5.72,7.82-7.96,11.53-3.57
					c25.74,30.46,103.05,111.36,222.17,144.31c7.01,1.94,14.49,0.79,20.64-3.09c15.85-10,51.75-28.1,97.03-22.24
					c7.03,0.91,14.15-0.87,19.67-5.32c19.66-15.83,71.99-51.05,135.66-38.44c7.75,1.53,15.79-0.24,21.87-5.29
					c33.28-27.63,151.98-118.26,341.83-177.72c59.96-18.78,92.13-84.53,68.02-142.56c-7.8-18.77-18.77-38.98-34.07-60.07
					c-5.79-7.98-0.15-19.27,9.71-19.15c13.87,0.17,33.03,2.31,54.82,9.99c12.06,4.25,24.04-6.8,20.52-19.1
					c-6.53-22.84-19.73-55.76-46.17-89.85c-30.95-39.9-45.59-90.33-40.58-140.58c11.18-112.19-7.19-308.17-239.25-413.67
					c0,0,379.84,56.09,441.22,457.12c0,0,14.81,61.32,13.78,141.76c0,0,19.55,17.73,90.95,24.89c0,0-7.11,118.99-84.09,143.58
					C2322.03,1752.43,2327.31,1763.04,2369.08,1783.93z"/>
			</g>
			<g class="st3">
				<path class="st4" d="M1483.71,1138.4c-116.95,93.61-232.67,27.51-272.88-1.39c13.73-13.04,28.59-25.58,44.68-37.62
					c0,0-98.5-89.62-44.59-220.51c3.36-8.15,9.04-14.37,15.9-18.42c21.36,209.79,168.81,242.59,246.33,245.1
					C1490.24,1106.12,1497.06,1127.72,1483.71,1138.4z"/>
			</g>
			<g>
				<path class="st4" d="M1618.55,2212.12c-257.7,0-352.66-94.46-375.64-123.3c-28.49-1.31-115.24-11.17-176.56-81.2
					c-5.18-5.92-5.71-14.58-1.3-21.09c1.67-2.45,11.8-17.19,24.58-31.44c-18.86-7.09-42.08-18.05-54.92-32.43
					c-4.05-4.53-5.42-10.86-3.6-16.67c0.22-0.72,22.79-74.72,17.49-171.65c-0.61-11.09-2.05-25.44-3.71-42.06
					c-13.54-135.03-41.41-412.94,185.29-595.14c-26.85-32.69-79.99-116.19-35.22-224.84c7-17,21.33-29.12,39.32-33.26
					c17.9-4.12,36.73,0.71,50.41,12.89c41.27,36.75,114.42,95.12,184.89,117.76c-6.03-12.62-11.47-28.43-14.5-47.66
					c-3.55-22.6,6.2-44.29,25.45-56.62c19.14-12.26,42.77-12.03,61.66,0.57c35.87,23.92,87.54,55.13,136.7,73.12
					c36.12-51.36,195.4-273.23,340.97-403.54c34.17-30.58,79.86-44.34,125.26-37.77c45.31,6.56,85.06,32.6,109.05,71.44
					c56.18,90.95,93.27,198.74,110.24,320.37c22.99,164.8,7.77,350.79-45.24,552.88c3.24,14.96,13.16,66.15,13.3,131.78
					c9.73,4.73,32.13,13.02,75.38,17.34c9.23,0.92,16.09,8.97,15.53,18.23c-0.28,4.74-7.03,104.22-69.39,146.13
					c5.71,3.48,13.16,7.64,22.84,12.48c7.62,3.81,11.32,12.6,8.73,20.72c-2.09,6.57-53.05,159.38-244.2,186.58
					c-29.85,36.98-198.14,228.03-493.38,235.96C1637.95,2211.99,1628.12,2212.12,1618.55,2212.12z M1251.77,2054.44
					c6.01,0,11.62,3.12,14.77,8.25c0.71,1.11,81.18,122.62,380.51,114.48c303.42-8.14,469.57-225.76,471.21-227.96
					c2.82-3.77,7.05-6.23,11.72-6.8c144.38-17.84,201-114.36,217.3-150.39c-27.85-15.29-37.61-25.61-40.72-31.84
					c-2.26-4.51-2.43-9.79-0.47-14.44c1.96-4.65,5.85-8.21,10.66-9.75c49.24-15.73,65.27-81.21,70.15-112.04
					c-59.69-8.25-79.73-23.88-83.36-27.18c-3.68-3.33-5.74-8.08-5.68-13.04c1.01-77.07-13.13-136.91-13.28-137.51
					c-0.67-2.78-0.63-5.7,0.1-8.46c115.34-435.94,31.08-703.04-59.91-850.35c-18.6-30.12-49.44-50.31-84.59-55.4
					c-35.27-5.1-70.74,5.58-97.26,29.32c-161.46,144.53-341.27,405.53-343.07,408.15c-4.33,6.3-12.26,9.03-19.56,6.67
					c-56.39-18.19-116.65-54.31-157.28-81.4c-7.42-4.95-16.33-5.03-23.85-0.22c-7.64,4.89-11.36,13.17-9.95,22.14
					c7.12,45.28,29.76,64.89,30.71,65.7c5.77,4.88,7.76,12.99,4.84,19.95c-2.92,6.96-10,11.27-17.48,10.57
					c-91.28-8.58-193.06-88.35-245.6-135.13c-5.41-4.82-12.58-6.65-19.67-5.02c-6.92,1.59-12.44,6.24-15.12,12.75
					c-48.46,117.63,36.62,197.79,40.26,201.14c3.78,3.48,5.83,8.48,5.58,13.61c-0.26,5.13-2.77,9.9-6.88,12.98
					c-227.26,170.1-199.79,444-186.59,575.63c1.71,17.03,3.18,31.74,3.83,43.62c4.5,82.32-9.55,147.95-15.99,172.99
					c15.29,11.11,43.52,21.17,60.18,25.47c6.57,1.7,11.55,7.08,12.71,13.77s-1.69,13.44-7.3,17.25
					c-9.94,6.76-22.4,21.59-30.97,32.84c61.72,60.6,148.67,59.64,149.7,59.65C1251.55,2054.44,1251.66,2054.44,1251.77,2054.44z
					 M2336.42,1742.95L2336.42,1742.95L2336.42,1742.95z"/>
			</g>
			<g>
				<path class="st4" d="M1238.51,2082.75c-3.76-6.01-6.24-11.26-8.7-17.1c-2.44-5.69-4.58-11.46-6.35-17.35
					c-1.75-5.9-3.36-11.78-4.4-17.83c-1.09-6.02-1.47-12.25-1.1-18.54c9.12,8.79,16.12,17.66,23.97,25.9
					c3.86,4.13,7.76,8.14,11.67,12.03l5.91,5.69c1.88,1.78,4.06,3.81,5.6,5.13L1238.51,2082.75z"/>
			</g>
			<g>
				<path class="st4" d="M2316.03,1768.66c-7.42-3.22-14.01-6.76-20.64-10.82c-6.59-3.98-12.96-8.39-19.18-12.99
					c-12.3-9.37-24.12-19.79-33.55-32.34c15.06,4.24,29.27,8.22,43.58,11.98l21.21,5.72c6.97,1.86,14.09,4,20.55,6.04
					L2316.03,1768.66z"/>
			</g>
			<g>
				<path class="st4" d="M2308.84,1600.05c-10.23-4.69-19.56-9.8-28.98-15.35c-9.38-5.46-18.55-11.31-27.43-17.65
					c-8.88-6.32-17.59-12.91-25.66-20.37c-7.98-7.53-15.7-15.46-21.67-24.61c9.58,5.2,19.08,9.63,28.76,13.7
					c9.58,4.17,19.35,7.92,29.05,11.65c9.74,3.67,19.58,7.1,29.35,10.56l29.18,9.9L2308.84,1600.05z"/>
			</g>
			<g>
				<path class="st4" d="M2284.38,1445.25c-19.84-109.86-64-183.85-64.44-184.58l29.58-17.87c1.95,3.22,47.91,80.24,68.88,196.31
					L2284.38,1445.25z"/>
			</g>
			<g>
				<path class="st4" d="M1874.6,994.63c-3.31,4.52-7.14,8.71-11.1,12.81c-4,4.06-8.15,8.04-12.51,11.87
					c-8.69,7.68-17.71,15.15-27.84,21.88c2.22-11.96,5.54-23.19,9.19-34.2c1.81-5.52,3.83-10.89,6-16.17
					c2.21-5.25,4.56-10.41,7.42-15.23L1874.6,994.63z"/>
			</g>
			<g>
				
					<ellipse transform="matrix(0.9431 -0.3325 0.3325 0.9431 -407.8829 692.8549)" class="st0" cx="1820.7" cy="1538.33" rx="34.53" ry="45.97"/>
			</g>
			<g>
				<path class="st4" d="M1347.21,1588.01c-11.6-9.33-22.91-17.76-34.49-25.45c-11.59-7.64-23.42-14.38-35.65-20
					c-6.02-3.07-12.41-5.07-18.59-7.79c-6.44-1.79-12.69-4.58-19.34-6.01c-13.13-4.18-26.78-5.93-41.64-9.52
					c13.78-5.86,29.18-8.83,44.44-7.51c7.72,0.1,15.18,2.04,22.71,3.67c7.28,2.4,14.65,4.79,21.41,8.43
					c13.73,6.81,26.26,15.85,36.73,26.73c5.19,5.49,10.01,11.27,14.14,17.54C1341.07,1574.33,1344.76,1580.91,1347.21,1588.01z"/>
			</g>
			<g>
				<path class="st4" d="M1619.17,1419.96c0.2-22.25,6.87-43.74,16.55-63.68c9.9-19.87,23.44-38.38,40.58-53.45
					c16.97-15.17,37.59-26.78,59.57-32.79c21.93-6.09,45.14-6.41,66.34-0.31c-20.85,7.42-39.8,14.47-57.04,24.02
					c-17.28,9.33-32.9,20.49-47.37,33.35c-14.54,12.76-27.82,27.29-40.64,42.87C1644.33,1385.6,1632.09,1402.15,1619.17,1419.96z"/>
			</g>
			<g>
				<path class="st4" d="M1515.1,1829.27c-19,8.1-40.16,10.34-58.11,0.12c-0.26-0.15-0.52-0.3-0.78-0.45
					c-26.2-15.23-64.6-67.03,27.42-93.85C1570.31,1709.84,1594.75,1795.3,1515.1,1829.27z"/>
			</g>
			<g>
				<path class="st4" d="M1517.12,1815.18c-0.33,4.96-0.8,8.95-1.5,13.32c-0.69,4.27-1.44,8.53-2.44,12.74
					c-1.96,8.44-4.43,16.83-7.73,25.08c-3.2,8.29-7.25,16.45-12.4,24.3c-5.09,7.86-11.53,15.42-19.8,21.6
					c-8.16,6.19-18.42,10.84-28.95,11.89c-10.52,1.2-20.53-0.65-29.36-3.66c-8.99-2.93-16.41-8.09-23.04-13.73
					c-3.21-2.94-6.07-6.27-8.86-9.51c-2.5-3.62-4.98-7.14-6.9-11.19c4.55,0.66,8.54,1.86,12.51,2.95c3.97,1.04,7.85,2.04,11.51,3.19
					c7.49,1.81,14.45,4.04,21.07,4.93c6.58,1.09,12.84,1.02,18.15-0.57c5.3-1.64,9.87-4.35,14.01-8.39
					c4.1-4.04,7.71-9.23,10.92-15.04c3.15-5.84,5.77-12.33,8.15-19.03c2.27-6.75,4.27-13.77,5.97-20.91
					c0.77-3.59,1.68-7.17,2.35-10.79c0.69-3.51,1.43-7.44,1.94-10.44L1517.12,1815.18z"/>
			</g>
			<g>
				<path class="st4" d="M1512.72,1805.2c1.13,1.24,3.08,3.21,4.73,4.8l5.31,5.01c3.63,3.3,7.41,6.45,11.21,9.56
					c7.71,6.06,15.75,11.66,24.17,16.35c16.76,9.47,34.95,15.58,53.54,15.97c9.29,0.3,18.66-1.03,27.83-3.72
					c4.67-1.1,9.05-3.24,13.68-4.86c4.41-2.16,9-4.08,13.27-6.75c17.61-9.82,34.16-23.16,50.89-37.53
					c-8.67,20.3-21.85,38.89-39.48,53.84c-4.28,3.89-9.27,6.96-14.07,10.34c-5.09,2.95-10.23,5.97-15.82,8.15
					c-10.98,4.69-22.91,8.08-35.16,8.99c-12.22,0.97-24.58,0.04-36.45-2.54c-11.85-2.69-23.23-6.81-33.87-12.08
					c-10.63-5.31-20.65-11.56-29.92-18.7c-4.64-3.56-9.13-7.3-13.43-11.28c-2.15-1.99-4.28-4.01-6.34-6.15
					c-2.14-2.22-3.95-4.11-6.35-6.93L1512.72,1805.2z"/>
			</g>
			<g>
				<path class="st4" d="M1449.13,1980.15c-1.8,0-3.58-0.49-5.16-1.46c-40.41-24.77-47.28-70.77-47.55-72.72
					c-0.46-3.31,0.78-6.62,3.3-8.82c2.52-2.19,5.99-2.95,9.18-2.05c40.5,11.52,52.06-5.62,52.53-6.36c2.66-4.66,8.5-6.24,13.21-3.69
					c4.72,2.55,6.48,8.51,4.04,13.28c-7.51,14.71-16.87,58.25-19.84,73.79c-0.61,3.18-2.74,5.87-5.71,7.18
					C1451.85,1979.87,1450.49,1980.15,1449.13,1980.15z M1419.96,1917.71c3.7,10.19,10.52,23.96,22.65,35.26
					c2.18-10.1,5.3-23.69,8.82-36.26C1443.24,1918.81,1432.89,1919.62,1419.96,1917.71z"/>
			</g>
			<g>
				<path class="st4" d="M1674.49,1934.52c-1.14,0-2.29-0.2-3.4-0.61c-55.28-20.31-71.11-57.36-71.75-58.92
					c-1.3-3.15-0.89-6.74,1.09-9.51c1.98-2.77,5.22-4.33,8.64-4.11c37.8,2.35,61.41-22.26,61.65-22.51
					c2.39-2.55,5.95-3.65,9.35-2.88c3.4,0.76,6.16,3.26,7.24,6.58c18,55.23-3.86,86.55-4.8,87.86
					C1680.62,1933.05,1677.6,1934.52,1674.49,1934.52z M1626.15,1880.57c7.65,9.33,21.2,21.85,43.7,31.59
					c3.42-8.54,7.53-25.12,2.5-49.24C1662.25,1869.88,1646.48,1878.13,1626.15,1880.57z"/>
			</g>
			<g>
				<path class="st4" d="M1700.44,968.57c-4.58,6.48-9.54,12.73-14.56,18.94c-4.97,6.24-10.22,12.32-15.47,18.39
					c-5.33,6.03-10.67,12.05-16.27,17.92c-5.57,5.88-11.2,11.74-17.21,17.36c2.1-7.96,4.59-15.68,7.13-23.38
					c2.51-7.71,5.28-15.27,8.06-22.82c2.86-7.5,5.73-15,8.86-22.34c3.1-7.36,6.25-14.69,9.78-21.79L1700.44,968.57z"/>
			</g>
			<g>
				<path class="st4" d="M1268.13,1087.57c0.89,0.98,2.62,2.71,4.08,4.07l4.71,4.33c3.2,2.89,6.56,5.66,10.01,8.32
					c6.94,5.27,14.18,10.21,21.7,14.66c15.09,8.86,31.52,15.18,48.63,18.89c8.58,1.7,17.34,2.65,26.2,2.9
					c8.88,0.3,17.75-0.78,26.72-1.95c17.87-2.9,35.64-8.35,54.03-14.82c-13.77,13.79-31.04,24.19-49.99,30.86
					c-19.04,6.33-39.72,9.01-60.28,7.42c-20.56-1.58-40.73-7.38-59.4-15.98c-9.38-4.26-18.36-9.33-26.88-15.11
					c-4.28-2.88-8.46-5.9-12.54-9.13c-2.06-1.59-4.06-3.26-6.04-5.03c-2.06-1.83-3.78-3.37-6.19-5.82L1268.13,1087.57z"/>
			</g>
			<g>
				<g>
					
						<ellipse transform="matrix(0.9711 -0.2386 0.2386 0.9711 -322.7597 475.9984)" class="st4" cx="1805.13" cy="1571.43" rx="91.23" ry="124.94"/>
				</g>
				<g>
					
						<ellipse transform="matrix(0.9711 -0.2386 0.2386 0.9711 -310.6578 472.1242)" class="st0" cx="1795.18" cy="1519.5" rx="34.95" ry="39.42"/>
				</g>
				<g class="st3">
					<path class="st0" d="M1840.16,1598.05c13.63-3.35,27.4,4.99,30.75,18.62c3.35,13.63-4.99,27.4-18.62,30.75
						c-13.63,3.35-27.4-4.99-30.75-18.62C1818.19,1615.17,1826.53,1601.4,1840.16,1598.05z"/>
				</g>
			</g>
			<g>
				<g>
					
						<ellipse transform="matrix(0.9711 -0.2386 0.2386 0.9711 -370.908 356.4615)" class="st4" cx="1287.2" cy="1710.57" rx="84.36" ry="115.54"/>
				</g>
				<g>
					
						<ellipse transform="matrix(0.9711 -0.2386 0.2386 0.9711 -359.7149 352.8773)" class="st0" cx="1278.01" cy="1662.55" rx="32.32" ry="36.45"/>
				</g>
				<g class="st3">
					<path class="st0" d="M1319.6,1735.19c12.61-3.1,25.34,4.61,28.44,17.22c3.1,12.61-4.61,25.34-17.22,28.44
						c-12.61,3.1-25.34-4.61-28.43-17.22C1299.28,1751.02,1306.99,1738.29,1319.6,1735.19z"/>
				</g>
			</g>
			<g>
				<path class="st6" d="M1860.18,985.1c0,0,133.26-206.06,229.62-320.26c21.93-25.99,63.17-21.53,79.18,8.47
					c45.75,85.74,138.02,322.72,90.19,628.1C2259.17,1301.42,2170.19,1053.88,1860.18,985.1z"/>
			</g>
			<g>
				<path class="st4" d="M2242.91,1307.26c-1.55-4.08-3.75-9.22-5.89-13.86c-2.18-4.75-4.5-9.49-6.89-14.2
					c-4.83-9.41-10.05-18.66-15.51-27.79c-11.04-18.19-23.26-35.73-36.48-52.48c-26.5-33.43-56.84-63.92-90.61-90.06
					c-8.3-6.72-17.11-12.76-25.76-19.02c-8.93-5.85-17.71-11.95-26.95-17.3c-18.18-11.22-37.23-20.98-56.62-29.99
					c-38.95-17.69-79.83-31.2-121.74-40.59l-0.01,0c-9.29-2.01-15.19-11.16-13.18-20.45c0.4-1.86,1.09-3.57,2-5.12l0.41-0.68
					c30.71-51.44,63.2-101.44,97.14-150.69c16.83-24.7,34.29-49.01,52.02-73.15c17.81-24.12,35.86-48.06,55.04-71.34
					c4.67-5.89,9.58-11.66,14.44-17.45l7.29-8.68c1.95-2.42,6.06-6.99,9.93-10.34c8.02-6.96,17.81-12.08,28.14-14.51
					c10.34-2.44,21.11-2.41,31.31-0.04c10.2,2.36,19.88,7.12,27.94,13.85c4,3.38,7.68,7.16,10.76,11.36
					c1.68,2.01,2.94,4.26,4.28,6.47l1.91,3.29l1.29,2.59c6.92,13.81,13.19,27.75,19.05,41.82c11.72,28.12,21.05,57.08,27.69,86.64
					c6.59,29.56,10.9,59.63,10.99,90.16c-13.36-27.45-24.83-54.81-36.5-81.9c-11.77-27.03-23.19-53.94-35.42-80.31
					c-6.1-13.18-12.56-26.16-19.47-38.7l-1.29-2.36l-1-1.46c-0.65-0.94-1.17-1.97-1.99-2.74c-1.38-1.76-3.03-3.23-4.75-4.59
					c-3.48-2.65-7.61-4.46-11.95-5.25c-8.76-1.63-17.76,0.96-23.94,6.69c-2.29,1.93-7.78,9.05-12.19,14.47
					c-4.59,5.7-9.22,11.35-13.68,17.21l-13.5,17.43l-13.26,17.69c-8.96,11.69-17.69,23.63-26.51,35.47l-51.96,71.99l-102.81,145.16
					l-10.77-26.26l0.02,0c44.1,9.87,87.34,24.14,128.64,42.91c20.57,9.55,40.8,19.93,60.14,31.85c9.82,5.7,19.17,12.17,28.66,18.41
					c9.21,6.65,18.58,13.09,27.41,20.23c35.94,27.83,68.24,60.27,96.47,95.89c14.08,17.84,27.11,36.53,38.93,56.02
					c5.86,9.78,11.46,19.73,16.7,29.92c2.6,5.11,5.13,10.27,7.54,15.53c2.45,5.38,4.64,10.35,6.99,16.57L2242.91,1307.26z"/>
			</g>
			<g class="st3">
				<path class="st4" d="M2301.39,1442.18c0,0,27.62-198.43-139.4-354.93c-5.02-4.71-6.97-11.81-5.19-18.45
					c6.62-24.61,14.83-90.15-50.42-170.56c-2.96-3.65-4.52-8.21-4.32-12.9c0.61-13.88-1.51-45.32-30.26-63.57
					c-8.76-5.56-11.02-17.4-5.29-26.05l48.9-73.86c7.4-11.18,23.78-11.29,31.28-0.16c20.88,31,59.45,90.78,98.21,163.99
					c0,0-49.85-243.46-112.54-237.86c-62.69,5.6-164.43,178.28-164.43,178.28s93.81,2.69,84.29,101.09c0,0,80.39,37.17,46.54,169.36
					C2098.76,1096.54,2266.47,1231.1,2301.39,1442.18z"/>
			</g>
			<g>
				<path class="st0" d="M2098.75,1096.52c0,0-2.96-2.96-8.74-8c-25.63-22.27-106.75-84.63-229.84-103.44l102.11-150.94
					c0,0,9.08-0.64,21.53,0.89c30.17,3.85,80.23,20.79,68.43,92.13C2052.24,927.17,2134.2,969.14,2098.75,1096.52z"/>
			</g>
			<g class="st3">
				<path class="st4" d="M2090.01,1088.53c-25.63-22.27-106.75-84.63-229.84-103.44l102.11-150.94c0,0,9.08-0.64,21.53,0.89
					l-36.4,70.98c-6.07,11.83-1.6,26.68,10.38,32.45c11.11,5.35,22.6,14.78,25.68,31.29c1.76,9.41,8.77,16.91,17.84,19.96
					C2028.41,998.81,2078.76,1024.14,2090.01,1088.53z"/>
			</g>
			<g>
				<path class="st4" d="M2098.76,1113.82c-4.55,0-8.97-1.8-12.26-5.11c-0.83-0.83-86.06-84.72-228.93-106.53
					c-5.86-0.89-10.85-4.73-13.23-10.16c-2.37-5.43-1.8-11.7,1.52-16.61l102.09-150.96c2.97-4.39,7.78-7.17,13.07-7.56
					c2.3-0.17,57.55-3.75,89.23,30.98c16.29,17.86,23.15,41.7,20.45,71c23.48,17.99,75.37,72,44.7,182.28
					c-1.65,5.93-6.33,10.54-12.28,12.09C2101.68,1113.63,2100.22,1113.82,2098.76,1113.82z M1889.35,972.82
					c97.19,20.34,165.5,65.41,198.76,91.64c13.92-89.95-41.3-120.59-43.88-121.97c-6.54-3.49-10.26-10.83-9.06-18.14
					c3.88-23.44,0.37-41.34-10.44-53.18c-14.73-16.14-40.33-19.28-53.26-19.79L1889.35,972.82z"/>
			</g>
			<g>
				<g>
					<path class="st0" d="M2689.68,3499.03c-123.78,79.35-225.35,8.44-376.64-31.75c-151.34-40.19-119.54-164.42-119.54-164.42
						s90.95-111.74,368.09-87c8.25,0.74,16.24,1.63,24,2.62c105.96,13.73,162.45,51.99,183.33,97.47
						C2797.66,3378.41,2759.2,3454.44,2689.68,3499.03z"/>
				</g>
				<g class="st3">
					<path class="st4" d="M2689.68,3499.03c-123.78,79.35-225.35,8.44-376.64-31.75c-151.34-40.19-119.54-164.42-119.54-164.42
						s90.95-111.74,368.09-87c8.25,0.74,16.24,1.63,24,2.62c-23.72,62.58-89.54,154.05-270.43,126.19
						c-11.8-1.82-22.5,7.34-22.15,19.28c0.39,13.29,5.16,29.23,23.19,38.26c34.91,17.48,190.44,59.79,215.82,82.01
						c25.43,22.22,75.49-13.68,8.2-82.01c0,0,52.8,4.22,82.89,36.71c14.9,16.09,37.96,22.28,58.05,13.51
						c24.09-10.53,46.05-32.59,28.91-78.81c0,0,54.76-7.16,58.86-57.67C2797.66,3378.41,2759.2,3454.44,2689.68,3499.03z"/>
				</g>
				<g>
					<path class="st4" d="M2572.21,3552.27c-54.42,0-108.32-18.24-166.76-38.02c-30.67-10.38-62.39-21.12-96.86-30.27
						c-165.93-44.1-132.2-183.98-131.84-185.39c0.62-2.43,1.76-4.69,3.34-6.63c3.96-4.85,100.02-118.56,383.07-93.33
						c175.02,15.61,218.68,89.39,229.13,131.98c15.61,63.66-21.86,137.19-93.26,182.96
						C2654.99,3541.79,2613.44,3552.27,2572.21,3552.27z M2209.44,3311.11c-3.48,20.15-11.25,107.77,108.03,139.46
						c35.58,9.46,67.85,20.38,99.07,30.94c102,34.52,175.7,59.46,263.83,2.95c58.96-37.79,90.44-96.31,78.34-145.62
						c-14.24-58.07-84.78-95.64-198.62-105.79C2321.76,3211.8,2225.87,3294.71,2209.44,3311.11z"/>
				</g>
				<g>
					<path class="st4" d="M2593.35,3525.37l0.42-1.3c0.19-0.55,0.37-1.15,0.53-1.82c0.32-1.3,0.76-2.55,1.02-3.93
						c0.68-2.68,1.12-5.45,1.63-8.22c0.32-2.79,0.7-5.6,0.9-8.41c-0.01-2.8,0.41-5.67,0.12-8.47c-0.29-11.3-2.71-22.57-7.45-33.39
						c-2.77-5.18-5.28-10.69-9.08-15.54c-3.22-5.29-7.6-9.79-11.72-14.74c-4.21-4.88-9.29-8.99-13.92-13.93
						c-5.12-4.25-10.36-8.57-15.55-13.41c6.75,1.46,13.56,3.28,20.3,5.48c3.24,1.36,6.48,2.8,9.71,4.32
						c3.21,1.55,6.64,2.83,9.55,4.98c3.02,1.98,6.11,3.92,9.13,6.01l2.26,1.57l2.07,1.83l4.15,3.71c5.8,4.75,10.28,10.91,15.1,16.88
						c8.81,12.61,14.77,27.61,17.13,43.19c1.16,7.79,1.44,15.7,0.88,23.57c-0.38,3.93-0.76,7.86-1.59,11.78
						c-0.33,1.95-0.81,3.95-1.34,5.92c-0.24,0.97-0.53,1.99-0.88,3.04c-0.32,1.02-0.62,2-1.18,3.5L2593.35,3525.37z"/>
				</g>
				<g>
					<path class="st4" d="M2727.71,3450.35l-1.54-8.83l-1.77-9.29c-1.29-6.18-2.55-12.39-4.15-18.48
						c-1.53-6.11-3.17-12.17-5.17-18.08c-1.82-5.98-3.97-11.8-6.48-17.41c-4.76-11.42-11.04-21.75-18.49-31.43
						c-3.79-4.79-7.93-9.39-12.57-13.99c-4.72-4.47-10-8.64-15.9-13.17c7.28-1.04,14.84-0.48,22.19,1.42
						c7.31,1.98,14.35,5.27,20.79,9.48c12.78,8.62,22.85,20.59,30.9,33.2c3.98,6.37,7.51,12.96,10.63,19.68
						c2.97,6.78,5.66,13.65,7.88,20.64c2.15,7.01,4.06,14.07,5.39,21.26c0.74,3.58,1.29,7.2,1.76,10.84
						c0.49,3.75,0.81,7.11,0.98,11.45L2727.71,3450.35z"/>
				</g>
			</g>
			<g>
				<g>
					<path class="st0" d="M1432.73,2601.93c-6.47,11.41-13.87,22.27-22.12,32.44c-64.48,79.1-181.41,59.99-268.16,30.12
						c-62.71-21.63-109.66-48.93-109.66-48.93c-6.57-0.84-12.89-2.37-19.01-4.59c-0.05,0-0.05,0-0.1,0
						c-96.43-34.56-136.03-229.4-63.4-298.67c79.25-75.59,112.13,2.76,112.13,2.76c121.66-23.26,111.64,80.43,111.64,80.43
						c14.71,3.85,27.75,7.9,38.56,11.7c20.94,7.16,33.72,13.08,34.86,13.63c0.05,0,0.1,0.05,0.1,0.05
						c0.1-15.21,1.48-30.46,3.65-45.28c7.51-50.81,24.59-96.18,32.39-115.09c2.52-6.02,4.05-9.38,4.05-9.38
						C1456.92,2234.08,1513.26,2460.12,1432.73,2601.93z"/>
				</g>
				<g>
					<path class="st5" d="M1432.73,2601.93c-6.47,11.41-13.87,22.27-22.12,32.44c-64.48,79.1-181.41,59.99-268.16,30.12
						c32.04-61.77,96.58-103.94,170.99-103.94C1358.47,2560.55,1399.94,2576.06,1432.73,2601.93z"/>
				</g>
				<g class="st3">
					<path class="st4" d="M1432.73,2601.93c-6.47,11.41-13.87,22.27-22.12,32.44c-64.48,79.1-181.41,59.99-268.16,30.12
						c-62.71-21.63-109.66-48.93-109.66-48.93c84.19,23.91,159.84,24.14,217.46,17.22c60.15-7.22,103.25-61.86,97.01-122.11
						c-5.98-57.66-4.03-105.03-1.45-134.09c1.79-20.08-4.63-40.03-17.86-55.25c-23.59-27.14-36.89-47.13-44.33-60.82
						c2.52-6.02,4.05-9.38,4.05-9.38C1456.92,2234.08,1513.26,2460.12,1432.73,2601.93z"/>
				</g>
				<g class="st3">
					<path class="st4" d="M1313.44,2476.17c-24.59-42.61-65.87-55.3-65.87-55.3c0.1-15.21,1.48-30.46,3.65-45.28
						C1301.49,2410.7,1313.44,2476.17,1313.44,2476.17z"/>
				</g>
				<g class="st3">
					<path class="st4" d="M1212.61,2407.19c1.38,60.01-31.72,83.44-50.45,91.88c-7.49,3.37-12.94,9.93-14.95,17.9
						c-19.59,77.86-113.79,43.58-113.79,43.58c122.25-2.91,66.56-84.38,66.56-84.38c77.03,3.21,74.06-80.68,74.06-80.68
						C1188.76,2399.34,1201.8,2403.39,1212.61,2407.19z"/>
				</g>
				<g>
					<path class="st4" d="M1277.35,2707.89c-110.44,0.01-229.01-63.75-250.25-75.7c-50.7-8.13-94.25-53.6-116.97-122.47
						c-22.12-67.05-22.73-161.34,28.22-209.94c31.25-29.8,60.9-42.01,88.1-36.34c22.79,4.76,37.33,21.03,45.06,32.63
						c39.24-5.3,69.82,1.81,91.07,21.18c22.07,20.12,27.54,48.06,28.67,65.03c16.1,4.63,29.75,9.34,40.23,13.29
						c6.66-77.65,38.97-148.39,40.49-151.67c2.56-5.55,7.87-9.34,13.96-9.95c72.92-7.38,132.95,25.49,169.01,92.48
						c51.89,96.42,38.59,233.49-30.94,318.84C1386.03,2691.86,1332.7,2707.89,1277.35,2707.89z M1013.42,2296.68
						c-14.26,0-31.82,9.6-51.23,28.12c-33.8,32.24-41.9,105.46-19.25,174.1c18.96,57.48,53.35,94.68,92,99.51
						c2.3,0.29,4.53,1.04,6.53,2.2c2.54,1.47,255.34,146.03,355.73,22.83c60.22-73.91,72.22-197.17,27.3-280.62
						c-27.32-50.76-71.4-77.09-125.11-75.17c-9.75,23.79-34.14,89.64-34.54,153.33c-0.03,5.9-3.08,11.38-8.08,14.52
						c-4.99,3.15-11.24,3.52-16.59,1c-0.26-0.13-28.38-13.26-70.52-24.3c-8.21-2.15-13.64-9.94-12.83-18.39
						c0.02-0.24,2.61-32.82-17.7-51.15c-14.97-13.51-39.67-17.08-73.47-10.62c-8.02,1.54-16.03-2.75-19.18-10.29
						c-0.04-0.11-9.28-20.88-27.3-24.51C1017.33,2296.86,1015.41,2296.68,1013.42,2296.68z"/>
				</g>
				<g>
					<path class="st4" d="M1255.45,2405.48c6.77,5.21,12.2,10.23,17.89,15.65c5.56,5.38,10.87,10.98,15.88,16.78
						c4.97,5.86,9.63,11.96,13.82,18.29c4.1,6.42,7.69,13.1,10.4,19.95c-10.27-10.64-22.42-18.28-35.01-24.73
						c-6.34-3.17-12.79-6.04-19.32-8.61c-6.42-2.5-13.38-5-19.4-6.56L1255.45,2405.48z"/>
				</g>
				<g>
					<path class="st4" d="M1076.91,2311.98c0.69,2.9,1.06,4.76,1.4,7.13c0.33,2.25,0.52,4.54,0.67,6.87
						c0.22,4.68,0.04,9.61-1.16,14.96c-0.6,2.67-1.4,5.44-2.73,8.3c-0.58,1.41-1.37,2.84-2.25,4.27l-0.65,1.06l-0.3,0.48
						c0.19-0.24,0.36-0.5,0.53-0.76c0.65-1.04,1.2-2.28,1.52-3.6c0.65-2.65,0.42-5.58-0.83-8.27c-1.2-2.68-3.7-5.15-6.49-6.33
						c-4.41-1.44-1.28-0.47-0.6-0.49l3.22,0.61c8.55,1.77,17.08,4.56,25.36,8.94c8.21,4.42,16.13,10.7,22.35,18.75
						c6.22,8.03,10.54,17.7,12.33,27.29c0.92,4.78,1.35,9.55,1.46,14.16c0.03,4.2-0.06,8.44-0.38,12.74
						c-0.69,8.58-2.22,17.53-5.63,26.33c-3.32,8.78-8.51,17.55-15.93,24.81c-1.83,1.83-3.85,3.51-5.96,5.1l-0.36,0.27l0.46-0.36
						c0.3-0.25,0.56-0.53,0.85-0.82c0.54-0.59,1.06-1.26,1.47-1.98c0.85-1.45,1.35-3.09,1.49-4.76c0.33-3.28-1.14-7.13-3.87-9.43
						c-0.35-0.28-0.66-0.54-1-0.77l-0.52-0.32c-0.13-0.07,0.17,0.12,0.24,0.16l1.45,0.95c0.97,0.62,1.91,1.29,2.85,1.98
						c7.5,5.43,14.48,12.64,19.48,21.8c4.95,9.14,7.22,20.34,6.02,30.33c-1.08,10.08-4.37,18.78-8.59,26.62
						c-4.3,7.97-10.47,15.35-18.02,20.76c-7.46,5.53-16.15,8.89-24.6,10.43c-17.04,2.86-33.46-0.6-46.85-8.7
						c15.31-2.03,29.35-5.37,40.46-11.32c11.15-5.94,18.35-14.02,22.77-24.42c2.33-5.3,3.74-10.85,3.77-15.46
						c0.1-4.71-1.26-8.45-3.44-12.13c-2.33-3.63-6-7.09-10.56-10.06c-0.56-0.38-1.12-0.75-1.72-1.1l-0.88-0.53l-1.43-0.93
						c-0.72-0.49-1.41-1.01-2.08-1.62c-5.53-4.71-8.48-12.37-7.79-19.31c0.29-3.5,1.39-6.94,3.19-9.96c0.9-1.5,1.96-2.92,3.15-4.17
						c0.59-0.65,1.21-1.21,1.86-1.76l1.17-0.96c0.79-0.67,1.58-1.37,2.31-2.19c6.02-6.35,9.4-17.14,10.32-29.25
						c0.2-3.04,0.25-6.16,0.22-9.32c-0.09-2.75-0.35-5.33-0.83-7.78c-1.05-4.85-2.69-9.04-5.39-12.73
						c-5.24-7.31-15.2-13.12-26.84-16.26l-2.18-0.55l-1.1-0.25c0.46,0.07-2.86-0.48-4.88-1.46c-4.5-1.87-8.4-5.73-10.39-10.06
						c-2.06-4.35-2.49-9.2-1.42-13.65c0.52-2.21,1.42-4.32,2.56-6.14l0.96-1.44l0.09-0.11c0.13-0.11,0.3-0.25,0.43-0.54
						c0.34-0.42,0.67-1.18,0.98-2.07c0.61-1.78,1.09-4.24,1.31-6.91c0.08-1.35,0.15-2.74,0.11-4.15l-0.12-3.8L1076.91,2311.98z"/>
				</g>
				<g>
					<path class="st4" d="M1104.42,2496.49l-1.91-34.51c19.76-1.09,34.3-7.18,43.23-18.08c14.99-18.3,11.25-45.59,11.22-45.86
						l34.17-5.21c0.26,1.71,6.21,42.29-18.39,72.66C1157.4,2484.4,1134.42,2494.83,1104.42,2496.49z"/>
				</g>
			</g>
			<g>
				<g>
					<path class="st0" d="M2931.96,1919.17c-1.53,25.58-7.06,47.45-14.81,61.82c-39.65,73.82-97.32,10.32-97.32,10.32
						c-17.33,33.72-58.21,24.34-58.21,24.34c1.68,12.15,1.18,21.97-0.84,29.92c-6.62,26.07-29.67,32.09-46.26,32.93
						c-1.48,0.05-2.96,0.2-4.44,0.35c-11.55,1.14-22.76,4.44-33.18,9.63c-2.22,1.04-4.39,2.22-6.52,3.46
						c-10.96,6.47-21.48,13.23-31.65,20.24c-190.24,131.49-248.46,357.38-248.46,357.38c4.39,28.14,11.26,54.21,19.9,79.1
						c44.88,130.35,136.57,229.1,166.3,435.1c6.47,44.64,11.31,82.36,14.91,114.06c9.53,82.8-41.57,159.98-119.59,183.68
						c-6.12,1.93-12.44,3.46-18.91,4.64c-378.91,69.57-649.83-81.22-649.83-81.22c15.9,102.6-77.22,163.98-152.37,181.95
						c-75.1,18.02-297.29,141.81-355.5,9.53c-13.83-31.45-14.47-58.21-7.36-80.68c9.78-31.3,34.46-54.41,59.3-70.56
						c32.49-21.03,65.13-30.22,65.13-30.22c-134.89-190.79-61.32-347.06-10.17-419c19.6-27.6,35.95-42.81,35.95-42.81
						s0-0.05-0.05-0.2c-49.57-187.13-55.3-315.95-49.87-395.4c4.74-69.72,18.12-101.52,18.12-101.52l579.37-210.73l382.46-222.83
						c0.49-0.3,0.99-0.59,1.43-0.84l191.87-111.79c63.4-36.93,139.24-48.09,209.8-27.95
						C2902.24,1719.3,2937,1838.04,2931.96,1919.17z"/>
				</g>
				<g>
					<path class="st5" d="M2471.78,3281.48c-153.61-58.41-262.78-207.08-262.78-381.23c0-149.8,80.78-280.75,201.16-351.6
						c44.88,130.35,136.57,229.1,166.3,435.1c6.47,44.64,11.31,82.36,14.91,114.06C2600.9,3180.61,2549.79,3257.78,2471.78,3281.48z
						"/>
				</g>
				<g class="st3">
					<path class="st4" d="M2931.96,1919.17c-1.53,25.58-7.06,47.45-14.81,61.82c-39.65,73.82-97.32,10.32-97.32,10.32
						c-17.33,33.72-58.21,24.34-58.21,24.34c1.68,12.15,1.18,21.97-0.84,29.92c-42.81,3.6-67.94-7.85-82.13-19.47
						c-11.63-9.52-27.2-13.25-41.78-9.61c-38.32,9.57-81.54-6.92-81.54-6.92c13.48,67.05,123.39,77.03,123.39,77.03l-1.83,1.88
						c-2.22,1.04-4.39,2.22-6.52,3.46c-10.96,6.47-21.48,13.23-31.65,20.24c-181.26-33.13-117.91-161.75-117.91-161.75
						c13.08-51.55-13.92-92.83-13.92-92.83c58.88-18.31,85.26,17.65,96.44,44.54c11.06,26.59,42.77,38.19,67.48,23.39
						c10.7-6.41,17.29-13.57,17.29-13.57c6.86-27.5-3.7-47.6-3.7-47.6c57.41,17.83-0.52,92.43,74.61,114.25
						c43.04,12.51,68.43-66.66,68.43-66.66c2.07,15.85,0,33.28,0,33.28C2907.17,2000.04,2930.92,1922.77,2931.96,1919.17z"/>
				</g>
				<g class="st3">
					<path class="st4" d="M2710.07,2078.85c-11.55,1.14-22.76,4.44-33.18,9.63c-2.22,1.04-4.39,2.22-6.52,3.46
						c-10.96,6.47-21.48,13.23-31.65,20.24c-190.24,131.49-248.46,357.38-248.46,357.38c4.39,28.14,11.26,54.21,19.9,79.1
						c44.88,130.35,136.57,229.1,166.3,435.1c6.47,44.64,11.31,82.36,14.91,114.06c9.53,82.8-41.57,159.98-119.59,183.68
						c-6.12,1.93-12.44,3.46-18.91,4.64c-378.91,69.57-649.83-81.22-649.83-81.22s-86.36-43.6-125.17-71.54
						c0,0,487.22,200.56,671.12,44.01c224.51-191.12-167.38-507.19,4.06-941.55c2.05-5.2,9.61-4.62,10.79,0.84
						c1.66,7.68,3.77,17.09,6.12,26.77c1.7,7.02,11.15,8.29,14.6,1.95C2416.31,2207.07,2528.02,2032.98,2710.07,2078.85z"/>
				</g>
				<g class="st3">
					<path class="st4" d="M1976.05,2278.57c41.23,30.17,147.58,66.61,147.58,66.61c-130.17,335.59-312.49,264.57-366.68,233.88
						c-8.23-4.66-18.65-0.88-22.17,7.9c-5.19,12.94-13.51,30.67-24.87,45.53c-20.59,26.96-19.55,112.67-19.55,112.67
						c-263.05-63.19-253.05-259.42-240.05-330.79c2.71-14.86-5.12-29.56-19-35.51c-13.94-5.98-28.86-13.51-43.23-21.34
						c4.74-69.72,18.12-101.52,18.12-101.52l579.37-210.73l382.46-222.83c-115.66,67.39-311.42,257.6-411.51,358.34
						c-26.35,26.52-22.05,70.99,9.54,90.99C1969.38,2273.87,1972.72,2276.13,1976.05,2278.57z"/>
				</g>
				<g class="st3">
					<path class="st4" d="M1599.81,3241.93c0,0-122.55,66.01-252.7,3.21c32.49-21.03,65.13-30.22,65.13-30.22
						S1467.44,3267.9,1599.81,3241.93z"/>
				</g>
				<g class="st3">
					<path class="st4" d="M1484.13,2894.28c-2.22-1.48-55.99-38.22-82.06-98.36c19.6-27.6,35.95-42.81,35.95-42.81
						S1462.89,2850.63,1484.13,2894.28z"/>
				</g>
				<g class="st3">
					<path class="st4" d="M1650.67,3386.85c-75.1,18.02-297.29,141.81-355.5,9.53c-13.83-31.45-14.47-58.21-7.36-80.68
						c12.05,2.52,20.79,11.9,21.13,33.08c0.5,33.69,22.42,48.27,44.86,54.35c23.26,6.3,47.27-4.52,59.39-25.35
						c20.14-34.63,54.2-41.44,54.2-41.44s-26.17,46.02,31.75,35.7c57.92-10.32,71.4-20.64,161.06-59.5
						c89.67-38.91,59.79-97.61,59.79-97.61c-32.29-41.82-42.12-81.57-42.12-81.57c40.93,30.56,125.17,71.54,125.17,71.54
						C1818.94,3307.5,1725.82,3368.88,1650.67,3386.85z"/>
				</g>
				<g>
					<path class="st4" d="M1398.55,3473.72c-51.21,0-95.96-17.59-119.18-70.38c-17-38.65-17.76-74.9-2.25-107.74
						c23.27-49.25,77.51-77.14,108.26-89.51c-86.81-134.55-73.8-251.34-46.5-326.94c24.46-67.72,63.61-113.91,79.93-131.2
						c-89.94-346.03-31.11-492.53-28.54-498.65c1.87-4.44,5.5-7.9,10.02-9.55l577.91-210.21l574.46-334.68
						c68.35-39.82,149.71-50.63,223.22-29.63c90.76,25.92,133.2,86.73,152.81,133.17c30.37,71.88,24.57,151.94,3.69,190.76
						c-14.35,26.7-32.96,41.63-55.32,44.37c-22.28,2.73-41.9-7.62-54.74-17.08c-12.64,11.89-28.61,16.52-42.5,17.51
						c-0.74,15.79-5.41,28.96-13.96,39.29c-11.27,13.62-28.73,21.4-50.47,22.49c-12.45,0.62-24.99,4.46-36.25,11.09
						c-193.28,113.83-262.6,333.96-271.21,363.69c12.49,75.32,43.96,136.57,77.24,201.35c41.57,80.9,88.68,172.59,108.42,309.39
						c5.99,41.5,11.03,80.05,14.98,114.57c11.28,98.43-55.73,189.47-152.54,207.26c-72.91,13.39-141.78,18.83-205.5,18.83
						c-212.49,0.01-368.06-60.46-428.54-88.35c-3.56,89.95-85.18,150.44-167.27,170.1c-14.4,3.45-35.66,11.47-60.28,20.76
						C1539.48,3445.16,1463.79,3473.72,1398.55,3473.72z M1419.88,2269.41c-9.81,32.21-44.35,180.47,34.85,479.25
						c1.64,6.17-0.26,12.73-4.93,17.08c-0.49,0.46-51.09,48.48-78.89,126.46c-36.85,103.4-18.21,208.62,55.41,312.75
						c3.24,4.58,4.05,10.46,2.18,15.75c-1.88,5.29-6.21,9.35-11.62,10.86c-0.81,0.23-82.72,24-108.56,78.89
						c-11.16,23.69-10.28,49.52,2.68,78.97c36.56,83.1,154.04,46.88,271.23,2.66c25.71-9.7,47.91-18.08,64.43-22.03
						c54.84-13.13,154.54-64,139.3-162.53c-1.01-6.52,1.79-13.05,7.21-16.83c5.42-3.77,12.52-4.12,18.28-0.91
						c2.66,1.46,270.42,146.88,638.32,79.32c79-14.51,133.66-88.89,124.45-169.33c-3.91-34.18-8.91-72.39-14.85-113.55
						c-18.92-131.09-62.65-216.22-104.95-298.54c-35.13-68.38-68.31-132.96-81.24-215.46c-0.36-2.33-0.25-4.71,0.34-6.99
						c2.71-10.52,68.94-259.11,288.07-388.16c16.06-9.45,34.06-14.92,52.06-15.83c8.23-0.41,19.35-2.48,25.58-10
						c5.62-6.8,7.4-17.97,5.28-33.21c-0.78-5.63,1.25-11.28,5.45-15.12c4.18-3.84,9.99-5.36,15.54-4.1
						c2.75,0.6,28.28,5.4,38.95-15.39c2.59-5.04,7.49-8.49,13.11-9.23c5.63-0.74,11.25,1.32,15.06,5.51
						c5.63,6.1,23.96,21.63,40.33,19.54c10.53-1.33,20.29-10.22,29-26.42c14.2-26.42,22.41-95.84-5.09-160.94
						c-16.68-39.49-52.86-91.22-130.47-113.39c-64.51-18.42-136.07-8.85-196.33,26.26l-575.8,335.46c-0.89,0.52-1.83,0.96-2.79,1.31
						L1419.88,2269.41z"/>
				</g>
				<g>
					<g>
						<path class="st4" d="M1454.94,2749.57c1.88,11.48,4.09,23.74,6.25,35.7c2.28,12.01,4.63,24.06,7.15,36.11
							c2.47,12.07,5.23,24.09,7.9,36.22c2.63,12.15,5.47,24.29,7.95,36.75c-14.82-20.59-26.64-43.06-36.9-66.12
							c-5.19-11.53-10-23.23-14.34-35.12c-4.46-11.94-8.44-23.72-11.86-36.47L1454.94,2749.57z"/>
					</g>
					<g>
						<path class="st4" d="M1795.51,3220.43c-10.81-6-21.17-12.25-31.47-18.87c-10.33-6.5-20.49-13.29-30.5-20.34
							c-9.98-7.08-19.91-14.27-29.37-22.16c-9.45-7.85-18.66-16.24-26.49-25.86c11.22,5.16,22.39,9.73,33.44,14.5
							c11.08,4.71,22.07,9.51,33.19,14.08l66.29,27.55L1795.51,3220.43z"/>
					</g>
					<g>
						<path class="st4" d="M1424.78,3203.06c0,0.07,0.73,0.8,1.2,1.3c0.46,0.53,1.18,1.13,1.76,1.7c1.16,1.18,2.52,2.32,3.87,3.47
							c2.67,2.3,5.6,4.49,8.59,6.57c3.01,2.1,6.06,4.2,9.33,6.01c3.16,2,6.52,3.67,9.91,5.33c13.53,6.76,28.33,11.53,43.72,14.73
							l11.68,2.01c3.91,0.77,7.89,0.8,11.87,1.25c7.97,0.99,16,0.7,24.14,0.91c8.13,0.11,16.22-0.91,24.47-1.26
							c8.15-0.91,16.32-2.1,24.6-3.17c-7.73,2.92-15.5,6.01-23.41,8.85l-12.11,3.42c-4.07,1.09-8.11,2.44-12.29,3.1
							c-8.3,1.61-16.67,3.43-25.23,3.97c-4.27,0.32-8.55,1.05-12.87,1.03l-13.01,0.19c-17.37-0.56-35-3.13-52.14-8.62
							c-4.27-1.4-8.54-2.85-12.69-4.71c-4.23-1.65-8.33-3.67-12.42-5.77c-4.07-2.16-8.06-4.5-11.99-7.14
							c-1.96-1.32-3.93-2.62-5.88-4.16c-0.98-0.77-1.91-1.43-2.93-2.33c-1.04-0.91-1.86-1.54-3.3-2.95L1424.78,3203.06z"/>
					</g>
					<g>
						<path class="st4" d="M1418.78,3458.07c-0.98-3.44-1.62-6.1-2.2-9.12c-0.58-2.94-1.1-5.86-1.46-8.82
							c-0.82-5.89-1.22-11.83-1.38-17.81c-0.27-11.95,0.83-24.12,3.71-36.19c1.37-6.06,3.58-12.02,6.13-17.85
							c2.56-5.82,5.77-11.55,10.12-16.48c4.29-4.94,9.48-9.19,15.33-11.95c5.92-2.65,12.17-4.03,18.35-3.5
							c-7.96,9.58-12.56,17.94-15.54,26.75c-1.5,4.37-2.85,8.73-3.67,13.37c-0.88,4.61-1.18,9.38-1.49,14.18
							c-0.36,9.67,0.21,19.59,1.34,29.57c0.53,4.99,1.25,9.99,1.97,14.98l2.31,14.47L1418.78,3458.07z"/>
					</g>
					<g>
						<path class="st4" d="M1279.58,3400.15c0.03-5.68,0.42-10.25,1.1-15.28c0.63-4.91,1.58-9.78,2.71-14.63
							c2.28-9.68,5.58-19.25,10.1-28.46c4.66-9.1,10.39-18.18,18.67-25.19c8.12-7.01,19.6-10.98,29.58-8.55
							c-7.8,6.7-12.44,13.09-15.89,20.2c-1.72,3.52-3.35,7.03-4.61,10.8c-1.28,3.77-2.15,7.72-3.06,11.66
							c-1.61,7.99-2.57,16.24-3.13,24.59c-0.3,4.17-0.47,8.36-0.63,12.54l-0.27,12.06L1279.58,3400.15z"/>
					</g>
					<g>
						<path class="st4" d="M2803.23,1986.5c0.95-2.27,2.25-5.45,3.3-8.3c1.14-2.94,2.33-5.91,3.4-8.93
							c2.16-6.04,4.54-12.15,6.44-18.41c2.05-6.25,4.04-12.59,5.94-19.06c2-6.47,3.61-13.06,5.58-19.85
							c2.54,6.55,4.52,13.3,6.04,20.17c1.59,6.87,2.64,13.85,3.34,20.88c0.59,7.02,1.11,14.13,0.97,21.24
							c-0.06,3.55-0.17,7.13-0.41,10.72c-0.38,3.66-0.58,6.99-1.41,11.15L2803.23,1986.5z"/>
					</g>
					<g>
						<path class="st4" d="M2764.1,2032.74c-3.75,0.46-6.1,0.54-9.02,0.62c-2.76,0.05-5.51,0.02-8.24-0.15
							c-5.46-0.26-10.9-1.02-16.32-2.07c-10.82-2.2-21.6-6.26-31.38-12.4c-5.01-2.87-9.42-6.76-13.77-10.56
							c-4.02-4.18-8.09-8.36-11.17-13.19c-3.57-4.58-5.89-9.67-8.48-14.66c-2.41-5.03-3.93-10.25-5.84-15.39
							c-1.45-3.89-1.1-8.01,0.62-11.45l1.27-2.5c0.43-0.68,1.49-2.45,2.28-3.85c0.85-1.49,1.72-3.03,2.55-4.6
							c1.71-3.13,3.25-6.41,4.83-9.71c3.04-6.66,5.67-13.61,7.7-20.87c2.1-7.25,3.66-14.83,4.43-22.72c1-7.94,0.96-16.12,0.84-24.9
							c5.23,6.83,10.04,14.56,12.83,23.08c1.71,4.22,2.6,8.62,3.72,13.08c0.65,4.46,1.6,9.05,1.68,13.63
							c0.55,9.19,0.04,18.55-1.81,27.68c-0.89,4.58-2.09,9.1-3.58,13.59c-0.8,2.22-1.56,4.48-2.56,6.69
							c-0.99,2.33-1.87,4.21-3.53,7.09l0,0.01l1.89-13.95c1.42,3.48,2.41,7.26,4.03,10.55c1.75,3.18,3.16,6.64,5.41,9.34
							c3.89,5.94,9.04,10.61,14.95,14.29c5.89,3.71,12.69,6.37,20.02,7.86c3.67,0.69,7.43,1.25,11.22,1.42
							c1.9,0.13,3.78,0.15,5.65,0.11c1.72-0.02,3.99-0.19,4.84-0.28L2764.1,2032.74z"/>
					</g>
					<g>
						<path class="st4" d="M2688.01,1972.95l-2.19,2.05c-0.64,0.59-1.25,1.11-1.87,1.63c-1.25,1.04-2.47,2.01-3.72,2.96
							c-2.49,1.88-5.01,3.66-7.65,5.23c-5.25,3.17-10.71,6.05-16.47,8.28c-5.73,2.31-11.73,4-17.81,5.36
							c-6.24,1.25-11.97,1.96-19.39,2c-7.05-0.24-14.2-1.13-20.93-3.44c-6.68-2.32-13.17-5.32-18.85-9.46
							c-11.48-8.07-20.39-19.34-25.64-32.06c-2.62-6.34-4.41-13.03-5.12-19.79c-0.49-3.84-0.55-5.57-0.73-8.05
							c-0.15-2.35-0.43-4.65-0.63-6.98c-1.12-9.19-2.84-18.15-5.72-26.1c-1.4-4.05-3.13-7.59-4.81-11.2
							c-1.9-3.29-3.72-6.76-6.23-9.67c-4.76-6.11-12.31-11.58-23.32-16.11c9.48-6.94,23.44-8.39,35.88-2.93
							c6.33,2.5,11.59,6.77,16.26,11.38c4.33,4.76,8.08,10.02,10.78,15.47c5.65,10.86,9.26,22.03,11.74,33.14
							c0.55,2.77,1.19,5.56,1.66,8.33c0.46,2.64,0.92,6.04,1.29,7.3c0.63,3.48,1.96,6.75,3.48,9.83c3.09,6.17,7.83,11.4,13.36,15.01
							c5.55,3.65,11.83,5.59,18.29,5.9c2.91,0.09,7.47-0.36,11.38-0.98c4.03-0.66,8.07-1.49,12.01-2.82
							c3.93-1.32,7.91-2.71,11.68-4.55c1.89-0.9,3.76-1.84,5.57-2.82l2.61-1.5l1.21-0.72c0.33-0.18,0.88-0.57,0.8-0.42
							L2688.01,1972.95z"/>
					</g>
					<g>
						<path class="st4" d="M2679.95,2103.86c-4.17-0.21-102.3-5.69-134.47-63.2c-16.03-28.66-12.99-63.55,9.02-103.7l30.3,16.62
							c-15.89,28.99-18.98,52.6-9.18,70.17c18.91,33.9,82.96,44.41,106.04,45.6L2679.95,2103.86z"/>
					</g>
					<g>
						<path class="st4" d="M2374.65,2476.95c-1.29-3.05-1.17-3.18-1.6-4.47l-0.77-2.83c-0.45-1.77-0.82-3.51-1.13-5.18
							c-0.66-3.37-1.18-6.61-1.71-9.87c-1.02-6.44-1.69-12.87-2.34-19.23c-1.21-12.75-1.87-25.43-2.34-38.11
							c-0.74-25.35-0.99-50.63,3.28-76.3c4.88,12.09,8.47,24.28,11.82,36.47c3.31,12.2,6.05,24.43,9.04,36.59l8.65,36.28l4.34,17.77
							c0.75,2.88,1.5,5.77,2.3,8.5l1.18,3.93l0.54,1.68c0.04,0.2,0.64,1.57-0.05-0.04L2374.65,2476.95z"/>
					</g>
				</g>
			</g>
			<g>
				<g>
					<g>
						<path class="st2" d="M1689.13,2742.99c0.79,1.43,1.23,2.17,1.23,2.17s-149.16-20.64-196.81-201.5
							c-20.24-76.98-4.89-133.86,19.45-173.8c32.88-53.97,82.16-77.03,82.16-77.03c185.7,20.64,136.57,197.8,87.39,277.74
							C1637.73,2643.4,1681.04,2728.43,1689.13,2742.99z"/>
					</g>
					<g class="st3">
						<path class="st4" d="M1689.13,2742.99c-100.17-59.25-63.72-175.75-38.31-231.81c8.81-19.43,7.78-41.78-2.24-60.62
							c-0.16-0.3-0.32-0.6-0.48-0.9c-10.18-19.38-29.87-32.18-51.71-33.7c-47.14-3.29-71.39-26.93-83.39-46.1
							c32.88-53.97,82.16-77.03,82.16-77.03c185.7,20.64,136.57,197.8,87.39,277.74C1637.73,2643.4,1681.04,2728.43,1689.13,2742.99
							z"/>
					</g>
					<g class="st7">
						<path class="st0" d="M1684.35,2733.68c-47.86-22.12-116.73-72.61-146.35-185.08c-20.24-76.98-4.89-133.86,19.45-173.8
							c26.52-43.53,63.7-66.94,77.09-74.37c-11.76-3.41-24.85-5.98-39.37-7.59c0,0-49.28,23.06-82.16,77.03
							c-24.34,39.94-39.7,96.82-19.45,173.8c47.65,180.86,196.81,201.5,196.81,201.5s-0.44-0.74-1.23-2.17
							C1688.06,2741.07,1686.37,2737.88,1684.35,2733.68z"/>
					</g>
					<g>
						<path class="st4" d="M1690.37,2762.44c-0.79,0-1.58-0.05-2.37-0.16c-6.56-0.91-161.17-24.39-211.14-214.24
							c-50.69-192.59,109.34-270.08,110.96-270.84c2.89-1.35,6.1-1.86,9.24-1.53c66.19,7.36,110.96,34.02,133.05,79.26
							c36.82,75.41-3.32,176.73-32.85,224.71c-43.17,70.16,7.39,155.74,7.91,156.6c3.43,5.7,3.29,12.87-0.38,18.43
							C1701.57,2759.56,1696.13,2762.44,1690.37,2762.44z M1598.35,2310.64c-22.99,12.56-127.47,78.9-88.06,228.6
							c30.44,115.65,104.93,161.48,148.74,178.85c-13.8-37.94-26.09-99.86,8.8-156.57c33.49-54.42,57.54-137.53,31.22-191.43
							C1683.03,2337.28,1649.16,2317.29,1598.35,2310.64z"/>
					</g>
					<g>
						<path class="st4" d="M1637.71,2305.89c-1.62,3.27-3.62,7.57-5.39,11.56c-1.83,4.04-3.54,8.21-5.31,12.33l-4.96,12.59
							c-1.52,4.26-3.17,8.48-4.59,12.78c-6.02,17.11-11,34.68-14.79,52.56c-1.08,4.46-2.02,8.94-2.71,13.46l-2.33,13.58
							c-1.14,9.1-2.67,18.26-3.41,27.5c-2.33,18.54-2.52,37.22-3.83,56.76c-7.4-17.92-12.65-37.01-14.83-56.49
							c-1.58-9.75-1.65-19.55-2.09-29.42c-0.13-4.93,0.25-9.83,0.35-14.77c0.09-4.94,0.43-9.86,0.93-14.78
							c1.59-19.71,5.15-39.28,10.44-58.41c2.73-9.54,5.74-19.04,9.38-28.33c1.88-4.64,3.7-9.29,5.88-13.85
							c2.09-4.69,4.29-8.91,7.15-14.01L1637.71,2305.89z"/>
					</g>
				</g>
				<g>
					<g>
						<path class="st2" d="M2123.64,2345.18c0,0-136.47,253.99-319.01,187.33c-182.49-66.66-114.25-239.67-114.25-239.67
							c36.39-35.01,70.26-42.27,109.22-33.38c34.02,7.8,71.89,27.95,118.8,52.83c77.52,41.08,157.56,38.36,190.1,35.01
							C2118.16,2346.26,2123.64,2345.18,2123.64,2345.18z"/>
					</g>
					<g class="st3">
						<path class="st4" d="M2123.64,2345.18c0,0-136.47,253.99-319.01,187.33c-182.49-66.66-114.25-239.67-114.25-239.67
							c36.39-35.01,70.26-42.27,109.22-33.38c-3.28,19.46-10.33,43.38-25.2,65.71c-41.58,62.41-0.73,147.35,74.22,149.87
							c16.69,0.56,35.83-1.05,57.78-5.49c87.79-17.73,156.12-72.58,202.09-122.25C2118.16,2346.26,2123.64,2345.18,2123.64,2345.18z
							"/>
					</g>
					<g>
						<path class="st4" d="M1865.92,2560.85c-22.56,0-45.02-4.02-67.21-12.13c-59.75-21.82-100.81-56.82-122.03-104.04
							c-34.11-75.89-3.7-154.85-2.38-158.18c0.91-2.31,2.31-4.39,4.1-6.12c77.06-74.06,144.71-38.18,247.15,16.14l0.93,0.49
							c93.58,49.62,192.89,31.38,193.88,31.19c6.54-1.26,13.24,1.36,17.2,6.74c3.95,5.38,4.46,12.54,1.31,18.41
							c-1.45,2.69-36.06,66.51-94.26,122.89C1986.74,2532.3,1926,2560.85,1865.92,2560.85z M1705.27,2302.55
							c-4.83,14.61-21.58,73.75,3.05,128.24c17.3,38.26,51.7,67.02,102.24,85.48c130.65,47.68,238.83-88.31,280.01-150.29
							c-41.15,1.96-111.31-1.84-180.29-38.41l-0.93-0.5C1805.88,2272.2,1760.66,2251.47,1705.27,2302.55z"/>
					</g>
					<g>
						<path class="st4" d="M1694.61,2308.58c21.84,17.72,44.77,35.98,68.15,51.87c11.64,8.14,23.71,15.41,35.8,22.26l9.18,4.84
							l9.3,4.28c6.32,2.8,12.94,5.62,19.53,8.05c13.23,4.93,26.76,8.97,40.52,12.11c13.77,3.04,27.8,4.86,41.97,5.46
							c7.07,0.14,14.2,0.13,21.33-0.36c7.12-0.5,14.22-1.52,21.32-2.82c14.12-2.81,28.29-7.06,41.31-14.46
							c-10.44,10.92-23.93,18.85-38.01,25.02c-14.18,6.08-29.37,10.19-44.84,12.29c-15.47,2.1-31.25,2.6-46.86,1.28
							c-15.63-1.11-31.1-3.85-46.24-7.66c-7.61-1.9-15.02-3.96-22.55-6.5l-11.29-4.19l-10.93-4.74
							c-14.43-6.5-27.9-14.47-40.99-22.75c-12.96-8.51-25.32-17.68-37.13-27.49c-11.84-9.91-22.95-19.97-33.72-31.75
							L1694.61,2308.58z"/>
					</g>
				</g>
				<g>
					<g>
						<path class="st2" d="M1653.88,2280.15c0,0-84.68,121.66-268.75,32.14c-135.83-66.06-132.33-108.87-121.07-126.8
							c3.95-6.37,8.89-9.58,8.89-9.58c-30.66-43.35-6.96-87.15-6.96-87.15c40.93,45.13,125.86,75.99,173.9,90.65
							c21.13,6.42,35.11,9.73,35.11,9.73L1653.88,2280.15z"/>
					</g>
					<g class="st3">
						<path class="st4" d="M1653.88,2280.15c0,0-84.68,121.66-268.75,32.14c-135.83-66.06-132.33-108.87-121.07-126.8
							c15.59,22.39,50.15,54.15,125.19,71.07c28.92,6.52,55.53-17.42,52.08-46.87c-1.1-9.37-1.7-19.55-1.44-30.28
							c21.13,6.42,35.11,9.73,35.11,9.73L1653.88,2280.15z"/>
					</g>
					<g>
						<path class="st4" d="M1511.61,2362.24c-37.71,0-82.34-9.26-134.05-34.41c-88.84-43.21-133.2-83.11-135.62-121.99
							c-0.83-13.43,3.7-24.37,9.35-32.28c-24.7-47.15-1.57-91.02-0.49-93.02c2.67-4.93,7.56-8.26,13.12-8.93
							c5.53-0.67,11.1,1.4,14.87,5.55c54.56,60.16,198.7,94.81,200.15,95.16c1.34,0.31,2.64,0.79,3.86,1.42l178.9,91.02
							c4.45,2.26,7.71,6.34,8.93,11.19c1.22,4.85,0.28,9.98-2.58,14.08C1667.37,2291.01,1616.17,2362.24,1511.61,2362.24z
							 M1274.83,2120.4c-1.22,12.72,0.66,29.17,12.25,45.55c2.71,3.84,3.75,8.61,2.87,13.23c-0.88,4.62-3.61,8.67-7.55,11.24
							c-0.42,0.31-6.67,5.07-5.93,13.7c0.97,11.33,14.23,43.04,116.21,92.63c129.51,62.98,204.42,15.55,233.29-11.4l-157.03-79.9
							C1451.71,2201.22,1340.33,2172.41,1274.83,2120.4z"/>
					</g>
					<g>
						<path class="st4" d="M1657.7,2297c-8.29,1.32-15.36,2.03-22.91,2.55c-7.43,0.61-14.83,0.8-22.21,0.99
							c-7.38,0.13-14.75-0.08-22.09-0.18c-7.34-0.45-14.68-0.75-21.98-1.34c-29.22-2.38-58.07-7.94-85.9-16.31l-10.44-3.08
							c-3.48-0.99-6.84-2.46-10.25-3.67c-6.79-2.58-13.61-4.99-20.31-7.71c-13.09-6.25-26.46-11.67-38.76-19.28
							c-25.45-13.54-48.01-31.57-69.56-50.03c23.39,16.24,47.27,31.63,73.41,42.29c12.64,6.17,26.21,10.1,39.34,14.83
							c6.72,1.96,13.53,3.6,20.26,5.41c3.39,0.83,6.7,1.91,10.14,2.52l10.28,1.93c27.32,5.28,55.1,7.75,82.72,7.19
							c6.9-0.15,13.79-0.57,20.66-0.83c6.86-0.61,13.71-1.11,20.51-1.92c6.79-0.88,13.57-1.73,20.24-2.97
							c6.57-1.1,13.55-2.6,19.2-4.1L1657.7,2297z"/>
					</g>
				</g>
				<g>
					<g>
						<path class="st2" d="M2320.45,1850.19c0,0,0,0-0.05,0.05c-257.1,165.01-566.34,435.74-566.34,435.74l-63.69-120.08
							c22.52-21.23,45.18-41.08,67.79-59.55C2041.38,1874.58,2320.45,1850.19,2320.45,1850.19z"/>
					</g>
					<g class="st3">
						<path class="st4" d="M2320.4,1850.24c-257.1,165.01-566.34,435.74-566.34,435.74l-63.69-120.08
							c22.52-21.23,45.18-41.08,67.79-59.55c0.14,0.19,0.28,0.38,0.42,0.57c20.08,27.38,58.39,33.5,85.71,13.33
							C1935.72,2052.77,2127.99,1920.71,2320.4,1850.24z"/>
					</g>
					<g>
						<path class="st4" d="M1754.05,2303.27c-1.04,0-2.09-0.09-3.13-0.28c-5.19-0.96-9.66-4.23-12.14-8.9l-63.69-120.1
							c-3.64-6.88-2.25-15.33,3.41-20.67c305.57-288.07,626.88-319.17,640.42-320.36c7.85-0.69,15.29,4.11,17.86,11.63
							c2.57,7.52-0.33,15.83-7.02,20.13c-253.05,162.45-561.24,431.58-564.33,434.28
							C1762.26,2301.77,1758.21,2303.27,1754.05,2303.27z M1711.84,2169.49l47.32,89.23c60.61-52.13,277.92-236.37,481.79-376.41
							C2128.36,1909.15,1915.39,1981.56,1711.84,2169.49z"/>
					</g>
					<g>
						<path class="st4" d="M1707.1,2206.21c25.28-20.07,50.67-38.23,76.77-56.06c26.03-17.75,52.47-34.79,79.4-50.98
							c26.89-16.25,54.15-31.82,81.91-46.39c27.6-14.84,55.92-28.29,84.29-41.37c-27.07,15.66-53.91,31.58-79.9,48.82
							c-26.15,16.96-51.66,34.84-76.69,53.31c-25.07,18.41-49.53,37.58-73.44,57.34c-23.81,19.7-47.49,40.24-69.35,61.15
							L1707.1,2206.21z"/>
					</g>
				</g>
				<g>
					<g>
						<path class="st2" d="M1663.41,2343.65c-84.14,77.77-190.98-47.65-190.98-132.82c0-43.05,24.74-57.42,49.18-61.13
							c23.9-3.65,47.6,2.96,47.6,2.96c1.38-1.93,2.77-3.8,4.15-5.63c58.61-77.22,182.54-38.91,189.65,57.77
							C1774.21,2356.73,1663.41,2343.65,1663.41,2343.65z"/>
					</g>
					<g class="st3">
						<path class="st4" d="M1763.01,2204.81c-3.46-46.85-34.36-79.93-71.95-92.87c6.94,12.68,8.22,27.82,12.7,43.49
							c43.57,152.49-67.71,143.87-94.14,139.81c-3.02-0.46-5.87,1.46-6.63,4.42c-11.74,45.5-63.42,23.77-92.45,10.96
							c38.69,50.79,100.22,81.66,152.85,33C1663.39,2343.63,1774.22,2356.74,1763.01,2204.81z"/>
					</g>
					<g class="st3">
						<path class="st4" d="M1622.67,2245.24c0,0-94.95-3.6-101.07-95.54c23.9-3.65,47.6,2.96,47.6,2.96
							S1552.56,2207.12,1622.67,2245.24z"/>
					</g>
					<g class="st7">
						<path class="st0" d="M1497.11,2240.45c0-43.06,24.74-57.42,49.18-61.13c12.32-1.88,22.14-0.06,28.76,2.16
							c6.64,2.22,13.92,1.42,19.79-2.39c1.56-1.01,2.78-1.89,3.19-2.43c39.57-52.13,108.87-51.55,151.93-15.96
							c-34.59-62.24-128.03-77.69-176.62-13.66c-1.38,1.83-2.77,3.7-4.15,5.63c0,0-23.7-6.62-47.6-2.96
							c-24.44,3.7-49.18,18.07-49.18,61.13c0,39.69,23.2,88.1,56.49,120.64C1509.4,2302.82,1497.11,2269.33,1497.11,2240.45z"/>
					</g>
					<g>
						<path class="st4" d="M1605.73,2385.33c-13.96,0-28.26-3.1-42.55-9.35c-58.57-25.62-108.05-101.24-108.05-165.13
							c0-28.42,9.23-49.84,27.45-63.68c25.72-19.54,61.03-16.93,79.46-13.75c31.41-38.86,80.57-54.03,129.33-39.6
							c50.17,14.85,85.05,57.92,88.88,109.71c4.31,58.44-7.92,101.87-36.35,129.07c-26.45,25.31-59.11,28.57-74.22,28.57
							c-0.04,0-0.08,0-0.13,0C1650.13,2377.19,1628.37,2385.33,1605.73,2385.33z M1536.99,2165.87c-11.88,0-24.66,2.08-33.57,8.87
							c-9.24,7.06-13.73,18.86-13.73,36.1c0,49.86,41.63,113.48,87.33,133.47c27.1,11.85,52.22,7.36,74.63-13.37
							c3.72-3.43,8.73-5.05,13.76-4.47c0.21,0.02,31.96,3.09,54.88-19.12c20.41-19.78,28.98-53.85,25.48-101.27
							c-3.34-45.3-35.37-70.57-64.22-79.11c-28.13-8.33-67.72-4.69-94.45,30.5c-1.26,1.66-2.51,3.37-3.76,5.15
							c-4.2,5.96-11.71,8.64-18.74,6.69C1559.15,2167.82,1548.49,2165.87,1536.99,2165.87z"/>
					</g>
					<g>
						<path class="st4" d="M1586.07,2156.51l-0.57,5.18c-0.22,1.98-0.41,3.97-0.51,5.99c-0.32,4.03-0.35,8.07-0.29,12.12
							c0.19,8.08,1.41,16.01,3.96,23.75c2.57,7.71,6.56,15.38,12.54,22.21c2.71,3.73,6.32,6.65,9.78,10.1
							c3.59,3.26,7.68,5.96,11.67,9.38c-5-0.45-10.28-0.85-15.38-2.09c-4.96-1.56-10.35-2.77-15.06-5.54
							c-10.01-4.56-18.92-12.33-25.85-21.68c-7.02-9.36-11.74-20.49-14.09-31.84c-0.45-2.84-1.05-5.71-1.34-8.58
							c-0.2-2.87-0.51-5.76-0.48-8.65c-0.05-2.88,0.1-5.78,0.36-8.69c0.32-3.05,0.65-5.53,1.57-9.37L1586.07,2156.51z"/>
					</g>
					<g>
						<path class="st4" d="M1658.07,2360.08c-3.21-1.33-5.22-2.55-7.6-4.02c-2.27-1.45-4.47-2.96-6.56-4.63
							c-4.2-3.27-8.09-6.97-11.62-10.97c-3.58-3.91-6.64-8.43-9.19-13.07c-2.54-4.68-4.24-9.9-5-15.1c4.89,2.2,9.3,4.04,13.71,5.57
							c4.38,1.55,8.6,2.88,12.84,4.04c4.24,1.13,8.42,2.1,12.54,3l6.11,1.25c1.88,0.38,4.21,0.86,5.41,1.04L1658.07,2360.08z"/>
					</g>
				</g>
			</g>
		</g>
	</g>
</g>
</svg>
